<svg xmlns="http://www.w3.org/2000/svg" width="192" height="192" viewBox="0 0 192 192">
  <defs>
    <linearGradient id="bgGradient" x1="0%" y1="0%" x2="100%" y2="100%">
      <stop offset="0%" style="stop-color:#667eea;stop-opacity:1" />
      <stop offset="100%" style="stop-color:#764ba2;stop-opacity:1" />
    </linearGradient>
  </defs>
  
  <!-- Background circle -->
  <circle cx="96" cy="96" r="88" fill="url(#bgGradient)" stroke="#ffffff" stroke-width="8"/>
  
  <!-- Table (ellipse) -->
  <ellipse cx="96" cy="110" rx="50" ry="30" fill="#ffffff" opacity="0.9"/>
  
  <!-- Chairs around table -->
  <rect x="70" y="85" width="8" height="12" rx="4" fill="#ffffff" opacity="0.8"/>
  <rect x="114" y="85" width="8" height="12" rx="4" fill="#ffffff" opacity="0.8"/>
  <rect x="60" y="105" width="12" height="8" rx="4" fill="#ffffff" opacity="0.8"/>
  <rect x="120" y="105" width="12" height="8" rx="4" fill="#ffffff" opacity="0.8"/>
  <rect x="70" y="125" width="8" height="12" rx="4" fill="#ffffff" opacity="0.8"/>
  <rect x="114" y="125" width="8" height="12" rx="4" fill="#ffffff" opacity="0.8"/>
  
  <!-- Fork and knife -->
  <path d="M75 60 L75 75 M72 60 L72 70 M78 60 L78 70" stroke="#ffffff" stroke-width="2" fill="none" opacity="0.9"/>
  <path d="M115 60 L115 75 M112 75 L118 75" stroke="#ffffff" stroke-width="2" fill="none" opacity="0.9"/>
  
  <!-- Title text -->
  <text x="96" y="45" text-anchor="middle" fill="#ffffff" font-family="Arial, sans-serif" font-size="16" font-weight="bold">TABLE</text>
  <text x="96" y="165" text-anchor="middle" fill="#ffffff" font-family="Arial, sans-serif" font-size="14" font-weight="bold">ASSIGNMENT</text>
</svg>